<svg xmlns="http://www.w3.org/2000/svg" xmlns:xlink="http://www.w3.org/1999/xlink" width="100%" height="100%" version="1.1" viewBox="0 0 20 20" xml:space="preserve" style="fill-rule:evenodd;clip-rule:evenodd;stroke-linejoin:round;stroke-miterlimit:2"><g id="Ebene1"><rect width="19.977" height="20" x=".021" y="-.023" style="fill:#95bbdf"/></g><path d="M10,10c2.194,0 4,-1.806 4,-4c0,-2.194 -1.806,-4 -4,-4c-2.194,0 -4,1.806 -4,4c0,2.194 1.806,4 4,4Zm-1.428,1.5c-3.078,0 -5.572,2.494 -5.572,5.572c0,0.512 0.416,0.928 0.928,0.928l12.144,0c0.512,0 0.928,-0.416 0.928,-0.928c0,-3.078 -2.494,-5.572 -5.572,-5.572l-2.856,0Z" style="fill:#fff;fill-rule:nonzero"/></svg>