<svg xmlns="http://www.w3.org/2000/svg" xmlns:svg="http://www.w3.org/2000/svg" id="svg7" width="384" height="448" version="1.1" viewBox="0 0 384 448"><metadata id="metadata13"/><path id="path5" d="M367 95c9.25 9.25 17 27.75 17 41v288c0 13.25-10.75 24-24 24h-336c-13.25 0-24-10.75-24-24v-400c0-13.25 10.75-24 24-24h224c13.25 0 31.75 7.75 41 17zM256 34v94h94c-1.5-4.25-3.75-8.5-5.5-10.25l-78.25-78.25c-1.75-1.75-6-4-10.25-5.5zM352 416v-256h-104c-13.25 0-24-10.75-24-24v-104h-192v384h320z" style="fill:#1a1a1a"/><flowRoot id="flowRoot3687" xml:space="preserve" style="fill:#fff;fill-opacity:1;stroke:none;font-family:sans-serif;font-style:normal;font-weight:400;font-size:40px;line-height:1.25;letter-spacing:0;word-spacing:0"><flowRegion id="flowRegion3689" style="fill:#fff"><rect id="rect3691" width="251.682" height="110.74" x="69.129" y="214.439" style="fill:#fff"/></flowRegion><flowPara id="flowPara3693"/></flowRoot><rect style="fill:#666;stroke-width:1.27060354" id="rect3719" width="150" height="150" x="98.659" y="204.71"/><rect style="fill:#1a1a1a;stroke-width:1.30443311" id="rect3717" width="150" height="150" x="130.204" y="175.179"/><rect style="fill:#fff;stroke-width:1.07838833" id="rect3721" width="39.598" height="138.929" x="153.023" y="198.331"/><circle style="fill:#fff;stroke-width:1.69401228" id="path3723" cx="227.019" cy="214.12" r="30.697"/></svg>