<svg xmlns="http://www.w3.org/2000/svg" xmlns:svg="http://www.w3.org/2000/svg" id="svg7" width="384" height="448" version="1.1" viewBox="0 0 384 448"><metadata id="metadata13"/><path id="path5" d="M367 95c9.25 9.25 17 27.75 17 41v288c0 13.25-10.75 24-24 24h-336c-13.25 0-24-10.75-24-24v-400c0-13.25 10.75-24 24-24h224c13.25 0 31.75 7.75 41 17zM256 34v94h94c-1.5-4.25-3.75-8.5-5.5-10.25l-78.25-78.25c-1.75-1.75-6-4-10.25-5.5zM352 416v-256h-104c-13.25 0-24-10.75-24-24v-104h-192v384h320z" style="fill:#1a1a1a"/><rect id="rect3685" width="289.938" height="149.667" x="48.323" y="188.264" style="fill:#1a1a1a"/><flowRoot id="flowRoot3687" xml:space="preserve" style="fill:#fff;fill-opacity:1;stroke:none;font-family:sans-serif;font-style:normal;font-weight:400;font-size:40px;line-height:1.25;letter-spacing:0;word-spacing:0"><flowRegion id="flowRegion3689" style="fill:#fff"><rect id="rect3691" width="251.682" height="110.74" x="69.129" y="214.439" style="fill:#fff"/></flowRegion><flowPara id="flowPara3693"/></flowRoot><text xml:space="preserve" style="font-style:normal;font-weight:400;font-size:191.63136292px;line-height:1.25;font-family:sans-serif;letter-spacing:0;word-spacing:0;fill:#000;fill-opacity:1;stroke:none;stroke-width:4.79078484" id="text3697" x="33.33" y="354.68" transform="scale(1.0793658,0.92646993)"><tspan id="tspan3695" x="33.33" y="354.68" style="fill:#fff;stroke-width:4.79078484">DC</tspan></text></svg>